<svg xmlns="http://www.w3.org/2000/svg" xmlns:xlink="http://www.w3.org/1999/xlink" viewBox="0 0 990.97 979.68"><defs><style>.cls-1{fill:url(#linear-gradient);}.cls-2{fill:none;}.cls-3{mask:url(#mask);}.cls-4{clip-path:url(#clip-path);}.cls-5{fill:#3c3c3b;}</style><linearGradient id="linear-gradient" x1="510.71" y1="-5.8" x2="510.71" y2="333.27" gradientUnits="userSpaceOnUse"><stop offset="0" stop-color="#fff" stop-opacity="0.3"/><stop offset="0.02" stop-color="#f3f3f3" stop-opacity="0.31"/><stop offset="0.25" stop-color="#969695" stop-opacity="0.39"/><stop offset="0.49" stop-color="#525251" stop-opacity="0.45"/><stop offset="0.74" stop-color="#2a2a28" stop-opacity="0.49"/><stop offset="1" stop-color="#1d1d1b" stop-opacity="0.5"/></linearGradient><mask id="mask" x="-24.78" y="0" width="1040.52" height="994.92" maskUnits="userSpaceOnUse"><g transform="translate(-24.78 657.57)"><rect class="cls-1" x="19.47" y="-1.71" width="982.47" height="339.06"/></g></mask><clipPath id="clip-path" transform="translate(-24.78 657.57)"><rect class="cls-2" x="352.09" y="-352.09" width="336.33" height="1040.52" transform="translate(352.09 688.42) rotate(-90)"/></clipPath></defs><title>Asset 3</title><g id="Layer_2" data-name="Layer 2"><g id="Layer_1-2" data-name="Layer 1"><g class="cls-3"><g class="cls-4"><path class="cls-5" d="M435.45-541.22c-11.47-13-101-64.59-117.27-73.87a494.36,494.36,0,0,1,86.51-29C395.37-633.92,411.14-592,435.45-541.22Z" transform="translate(-24.78 657.57)"/><path class="cls-5" d="M648.21,302c-.91,1.5-1.87,2.89-2.78,4.29a501.53,501.53,0,0,1-125.17,15.8c-1.55,0-3.14-.07-4.69-.07,19.15-2.2,55.67-13.43,98.21-61.87C628.21,247.72,673.61,235.23,648.21,302Z" transform="translate(-24.78 657.57)"/><path class="cls-5" d="M653.68-639.61c3.28,23.09,10.06,79.76,3,110.45C715-561.73,730.2-573.9,798.5-573.1A496,496,0,0,0,653.68-639.61Zm81.26,58.39a99.69,99.69,0,0,0-19.81,5.51,91.31,91.31,0,0,0-18.42,9.55A122.91,122.91,0,0,0,680-552.31a57.71,57.71,0,0,1,14-18.17,64,64,0,0,1,19.11-11.65,66,66,0,0,1,21.41-4.36,54.06,54.06,0,0,1,21.31,3.38A135.84,135.84,0,0,0,734.94-581.22Z" transform="translate(-24.78 657.57)"/><path class="cls-5" d="M784-203.31c-42.69-65.41-66.25-174.28-66.25-174.28-4.6-119.72,28.6-153.55,28.6-153.55-89.5,15.87-152.11,177.52-68.88,292.29C754.32-132.93,768.08-74.92,777.67,17c-15.1-16.88-53.59-50.89-78.78,6.56-31.53,71.91-204,297.32-328.68,119A9.15,9.15,0,0,0,358,140a7,7,0,0,0-3.43,6,6.9,6.9,0,0,0,.21,1.68c6.28,25,39.48,135.28,139.14,147.24C606.5,308.44,741.33,63.12,741.33,63.12S758.27,41,773.12,68.07l.11.17a29.75,29.75,0,0,0,26.1,15.45c18.17,0,18.91-6.45,26.85-19.88,0,0,0-.07,0-.1C877-22.37,838.44-119.92,784-203.31ZM670.92-430.67a250.76,250.76,0,0,0-7.8,29.05,234,234,0,0,0-4.27,29.5,139.62,139.62,0,0,0,.7,29.86c-4.27-9.42-5.83-19.7-6.13-29.89a133.59,133.59,0,0,1,2.84-30.46,148,148,0,0,1,9.54-29.5c4.29-9.45,9.49-19.05,17.85-26.36C677.67-449.77,674.19-440.23,670.92-430.67ZM532.51,275a110.82,110.82,0,0,1-33.82,5.33c-11.46-.14-23.12-2.44-33.36-7.67-5.19-2.51-9.23-7.09-13.41-10.89-4.05-4-7.4-11.19-9.77-16.18a56.5,56.5,0,0,0,25.06,20.71,82.32,82.32,0,0,0,32.14,6.49,130.21,130.21,0,0,0,32.89-4.32l8-2.27c2.65-.87,5.26-1.88,7.87-2.83l4-1.36,3.87-1.6c2.57-1.12,5.19-2.16,7.8-3.21C554.14,262.88,543.39,271.71,532.51,275Zm216.4-251.1c-1.27-3.46-2.71-6.91-5.15-8.79a6.34,6.34,0,0,0-4-1.43,13.09,13.09,0,0,0-4.63.76,47.77,47.77,0,0,0-9.31,4.68c-3.07,1.81-6,3.9-9.28,5.75,2.15-3,3.58-6.53,6.16-9.23A29.56,29.56,0,0,1,733.82,8.5,15.08,15.08,0,0,1,740,7.77a8.87,8.87,0,0,1,5.79,2.82C748.71,13.84,749.16,20.3,748.91,23.93ZM798.7-105.55A183.06,183.06,0,0,1,809.92-67.2a197.12,197.12,0,0,1,3.16,39.7c-.35,13.26-2,26.7-6.73,39.13a217.61,217.61,0,0,0,.75-39,313.81,313.81,0,0,0-4.7-38.52,292.05,292.05,0,0,0-9.24-37.62c-4.09-12.21-9-24.26-16.8-35C786.61-129.86,793.47-117.72,798.7-105.55Z" transform="translate(-24.78 657.57)"/><path class="cls-5" d="M592.54-98.08c-50.9-65-40.95-149.76-40.95-149.76C438.2-144.92,524.88-82.11,532.5-60.63s-33.69,40.5-38.66,41.12-29.18-47.88-29.18-47.88c-26.71-53.4-68.19-48.2-90.21-22.74S292.68-21.36,248-14C238-44.69,207-98.68,207-98.68S156-178,125.57-266.4s-7.38-135.49-7.38-135.49-53.69,15-69.78,112.65C33.1-196.33,104.5-112.94,149.24-39.14c48.68,80.25,55.88,214.8,62.09,226.49,50.9-17.79,57.75-124,57.75-124,0-8.57,13.24-14,22.33-9.84,83,29.44,144.11,23.86,190.68-1.7a184.47,184.47,0,0,0,19.47-12.39C512.71,29.15,527.07,15.51,542.2.06c7.59-7.78,15.38-16,23-24.48C606.2-69.83,592.54-98.08,592.54-98.08ZM523-182.29a129.18,129.18,0,0,0-6.1,24.79,102.92,102.92,0,0,0-.53,25.29c.92,8.44,2.95,19.68,6.37,27.87-5.61-6.87-11.85-20.35-13.71-29.18a77.3,77.3,0,0,1-.82-26.92A90.8,90.8,0,0,1,516-186.15c3.8-8,11.47-16.29,18.38-21.94C529.37-200.77,525.88-190.38,523-182.29Zm-456.74-67c1.31,8.34,2.14,22,3.69,30.51a184.21,184.21,0,0,1-11.36-30.13,93,93,0,0,1-3.28-26,83.58,83.58,0,0,1,4.8-25.84,127.64,127.64,0,0,1,13.16-25.66c-2.54,8.3-3.62,19.39-5.6,27.55a117.6,117.6,0,0,0-3.28,24.66A137.93,137.93,0,0,0,66.24-249.27Zm159,387.75c-.21-10.7-.81-21.2-2-31.66a302.52,302.52,0,0,0-5.19-31,293.71,293.71,0,0,0-8.43-30.31A316.17,316.17,0,0,0,197.92,16a69.2,69.2,0,0,1,19.46,26.41,172.39,172.39,0,0,1,13.93,62.68C231.59,115.83,230.33,127.51,225.26,138.48ZM399-86a38.07,38.07,0,0,1,16.44-2,35,35,0,0,1,15.7,5.33,22.77,22.77,0,0,1,6,5.79c1.69,2.23,4,8.55,4.16,11.16-1.66-5.12-7.86-8.51-12.27-10.88a39.83,39.83,0,0,0-14.57-4.08c-10.16-1-23.28.56-32.2,6.56C385.72-78.27,393.79-84.2,399-86ZM342.1,4.73C348.84-3,355.62-11,362.32-19c32.91-39.27,60.11-1.15,60.11-1.15l21.63,30C394.88,51.08,351.42,13.84,342.1,4.73Z" transform="translate(-24.78 657.57)"/><path class="cls-5" d="M542.2.06a218.69,218.69,0,0,1-40.64,39.37C512.71,29.15,527.07,15.51,542.2.06Z" transform="translate(-24.78 657.57)"/><path class="cls-5" d="M617.84,104.72C609.9,90.21,582.53,85.54,562,84.15c-.64,14.85-4.06,40.07-13,60.09-17.32-20.68-82-19.64-79.83-21l16.68-61.87c20-.7,39.06.66,56.87,4.74l11.93-44.26c27.16-3.35,52.31-.17,75.24,10.05C633.82,33.26,634,76.44,617.84,104.72Z" transform="translate(-24.78 657.57)"/><path class="cls-5" d="M174.67-212.66c7.07,1.27,56.54-14.61,70.68-4.44v36.2s64.25-17.15,75.82,0l-10.93-53.36s-10.88-22.65-67.46-1.27c-.64-34.93-11.57-44.46-11.57-44.46l-66.82,7S175.31-224.73,174.67-212.66Z" transform="translate(-24.78 657.57)"/><path class="cls-5" d="M687.83-28S670-1.16,651.64-12.43c-47.74-46.31-12.49-133.29-8.54-140.51s16.08-10.29,15.7-1.61c-24.8,53.36-11.65,94.87-3.14,103.48s28.5-16.78,28.5-16.78C706.46-59.16,687.83-28,687.83-28Z" transform="translate(-24.78 657.57)"/><path class="cls-5" d="M284.78-92.57S280.51-73,267.53-75.06C230-90,231.08-148,231.75-153s6.95-9.73,8.65-4.67c-2.47,36.27,14.18,56.78,20.92,59.64S274-114.37,274-114.37C288.62-114.79,284.78-92.57,284.78-92.57Z" transform="translate(-24.78 657.57)"/><path class="cls-5" d="M469.78-208.92c-8.54,13.78-17.54-6.1-17.54-6.1s-7.19-22.53-16.83,6.1-18,69-31.82,79.06c-9-3.55-10.79-65.28-41.41-69.43s-23.43-49.25,5.39-47.19c0,0,38.42,11,42,57.86,10.83-43.91,27.45-64.91,36.06-65.29S486.11-248.82,469.78-208.92Z" transform="translate(-24.78 657.57)"/><path class="cls-5" d="M1010.87-99.06c3.57-113.91-50.66-200.57-96.27-261.12s-27.8-137.06-27.76-137.13c80.08,87,128.9,202.63,128.9,329.58A489.45,489.45,0,0,1,1010.87-99.06Z" transform="translate(-24.78 657.57)"/><path class="cls-5" d="M170.47,179.15C80.48,90.46,24.78-32.2,24.78-167.73c0-11.09.42-22.08,1.16-33C30.38-172,50.42-73.57,126,32.49,139.92,55.93,168.75,131.54,170.47,179.15Z" transform="translate(-24.78 657.57)"/><path class="cls-5" d="M377.91,301.53a495.39,495.39,0,0,1-147.78-72.19c24.34-7.08,65.19-24.84,69.89-65.15C307.85,193.38,323.3,259.57,377.91,301.53Z" transform="translate(-24.78 657.57)"/><path class="cls-5" d="M619.46-631.48a75.62,75.62,0,0,0-12.84-18.66,503.5,503.5,0,0,0-86.36-7.43,507.78,507.78,0,0,0-69.08,4.74,42.73,42.73,0,0,0-3.35,2.9c13.41,127.64,55.95,129,85.06,131.52s66-75,66-75,4,28.81.07,59C588.33-453.2,570.42-397,531.72-347.12c-38.13,49.14-61.94,43.34-118,43.34,32.56,28.18,68.16,44.74,92.92,40.59,33.48-5.61,57.29-30.6,75.89-60.14,35.67-60.43,45.63-129.61,47.86-147.37C635.9-514.44,644.61-579.89,619.46-631.48ZM513.52-585.24l-2.93,4.47c-9.7,2.3-16.79,1.36-21.06-2.72-6.49-6.21-5-18.17-4.48-21.31,23.5-12.59,45.37-21.35,47.91-19.32C535.78-619,525-602.61,513.52-585.24ZM555.29-309a66.5,66.5,0,0,1-17,18A73.5,73.5,0,0,1,516-280.1c-7.94,2.26-21.56,4.39-29.68,3.52,7.87-2,21.64-8.11,28.77-11.21A95,95,0,0,0,534.34-299c6.21-4.43,12-10.82,16.93-16.68a141.39,141.39,0,0,0,14.66-20.78C564.8-328.47,559.74-315.92,555.29-309Z" transform="translate(-24.78 657.57)"/><path class="cls-5" d="M407.09-506c-25,10.5-41.42,32.4-41.42,32.4s-51.4,37.35-58.74-1.71S312.29-521,312.29-521l28.3,24.45,31.82-39.06-60.36-41.3a17,17,0,0,0-24.42,5.58c-18.87,33.62-47.38,120.89-3.52,156.35,62,50.12,120.08-22.49,120.08-22.49s26,13.36-3.84,44.78a331.69,331.69,0,0,1-49.78,42.34c-14.78,10.32-32.84,9.45-50.87,7.64C264.14-346.23,178.13-401.89,189.42-480c2.29-15.87,13.37-31.81,30.69-47,11.11-11,12.79-31.22.14-28.93a13.14,13.14,0,0,0-5.65,2.62q-9.15,7.08-17.95,14.59C175-517.75,114.56-459.3,128-407.09c14.33,55.69,99.21,116.55,204.81,141.59a7.33,7.33,0,0,0,5.63-.93c61-38.38,127.86-98.4,131.34-145.26C473.55-462.89,471.68-488.87,407.09-506Zm-83.42,93.29A52.67,52.67,0,0,1,304-419.15,37.77,37.77,0,0,1,289.45-434c-3.25-6.2-3.58-15.41-2.95-22a56.77,56.77,0,0,0,7.63,17.55,42.9,42.9,0,0,0,13.68,12.24c5.37,3.14,9.65,6.22,15.86,7.86a80,80,0,0,0,21.11,2.71A42.85,42.85,0,0,1,323.67-412.74Zm-179.31,8.13a50,50,0,0,1-4-16.88,48.32,48.32,0,0,1,2.08-17.23c1.73-5.51,6.62-13.31,11-17.08-3,4.88-3.4,12.58-4.46,17.88a64.16,64.16,0,0,0-1,16.18c.64,10.82.9,24.12,6.87,33.81C150.46-391.66,146.69-399.31,144.36-404.61Zm308.31,3.31a88.32,88.32,0,0,1-14.12,25.36c-6.06,7.53-13.58,14.12-22.33,18.13a103.19,103.19,0,0,0,17.85-21.27A120,120,0,0,0,446-403.6a105.26,105.26,0,0,0,5.92-26.47,83.18,83.18,0,0,0-2.08-27.45c5.05,8.13,7.38,17.93,7.59,27.59A80,80,0,0,1,452.67-401.3Z" transform="translate(-24.78 657.57)"/><polygon class="cls-5" points="130.02 204.28 130.02 204.28 130.02 204.28 130.02 204.28"/><polygon class="cls-5" points="130.02 204.28 130.02 204.28 130.02 204.28 130.02 204.28"/><path class="cls-5" d="M872.58-334.65C797-478.76,846-536.65,846.09-536.76,772.52-509,761-451.49,761-404.12c0,22.28,5.67,41.69,13.26,62.08,11.3,30.36,27.81,61.12,44.27,85.65,26.88,40,90,129.67,100.83,251.22,14.21,159.59-250.2,302.79-258.24,307.08,22.9-8.26,44.2-16.88,64.14-25.73s38.56-18,55.74-27.38A494.51,494.51,0,0,0,952.41,72,207.25,207.25,0,0,0,979.86-28.23C981.1-147.38,910.53-262.31,872.58-334.65ZM784.49-382a291.2,291.2,0,0,0,5.25,31.44,111,111,0,0,1-11.26-30.61,139.74,139.74,0,0,1-3-32.43,138.48,138.48,0,0,1,4.68-32.27,103.28,103.28,0,0,1,13.07-30,242.06,242.06,0,0,0-7.16,31.1,232.06,232.06,0,0,0-2.85,31.31A232.85,232.85,0,0,0,784.49-382ZM954.91-.33c-1.81,7.66-4.25,15.35-8.69,21.87A74.38,74.38,0,0,0,951.61-.87a160.84,160.84,0,0,0,.51-22.92,314.71,314.71,0,0,0-5.7-45.68,398.76,398.76,0,0,0-11.32-44.75c-2.35-7.34-4.91-14.61-7.93-21.72A85.56,85.56,0,0,0,916-156.21c6,5.2,10.21,12.08,14.18,18.84a182.71,182.71,0,0,1,9.94,21.4,262.89,262.89,0,0,1,13,45.22,221,221,0,0,1,4.36,46.92A128.33,128.33,0,0,1,954.91-.33Z" transform="translate(-24.78 657.57)"/><path class="cls-5" d="M845.92,73.91c-3.07,4.61,4.59,6.84,9.09,4.17s52.24-38.74,41.43-79.25c-6.3-12-24.82-3.11-24.82-3.11s-20.36,11-11.06,22.85c0,0,15.62-1.49,17.42,5.93S876.92,52.82,845.92,73.91Z" transform="translate(-24.78 657.57)"/></g></g></g></g></svg>