<svg xmlns="http://www.w3.org/2000/svg" viewBox="0 0 1236.14 1236.14"><defs><style>.cls-1{fill:#1d1d1b;}</style></defs><title>logo</title><g id="Layer_2" data-name="Layer 2"><g id="Layer_1-2" data-name="Layer 1"><path class="cls-1" d="M512.28,146.81C498,130.44,386.25,65.31,366,53.6A613,613,0,0,1,473.91,16.94C462.29,29.84,482,82.78,512.28,146.81Z"/><path class="cls-1" d="M777.68,1210.8c-1.14,1.89-2.33,3.65-3.47,5.41a619.08,619.08,0,0,1-156.14,19.93c-1.93,0-3.91-.08-5.85-.08,23.89-2.78,69.44-17,122.51-78.07C752.73,1142.28,809.37,1126.52,777.68,1210.8Z"/><path class="cls-1" d="M784.5,22.66c4.1,29.14,12.55,100.65,3.75,139.37,72.69-41.1,91.7-56.46,176.9-55.45A615.51,615.51,0,0,0,784.5,22.66ZM885.87,96.33a122.8,122.8,0,0,0-24.71,7,113.33,113.33,0,0,0-23,12,154.31,154.31,0,0,0-20.86,17.48,72.76,72.76,0,0,1,17.45-22.93,79.5,79.5,0,0,1,23.84-14.7,81.47,81.47,0,0,1,26.71-5.5A66.63,66.63,0,0,1,911.91,94,168.16,168.16,0,0,0,885.87,96.33Z"/><path class="cls-1" d="M947.1,573.18c-53.25-82.53-82.64-219.9-82.64-219.9-5.74-151.07,35.68-193.76,35.68-193.76-111.65,20-189.74,224-85.92,368.81C910,662,927.2,735.18,939.17,851.17c-18.83-21.29-66.85-64.2-98.27,8.28-39.34,90.74-254.44,375.15-410,150.1a11.34,11.34,0,0,0-15.18-3.21,8.89,8.89,0,0,0-4.27,7.57,8.48,8.48,0,0,0,.27,2.11c7.83,31.56,49.24,170.7,173.56,185.8,140.38,17.07,308.57-292.47,308.57-292.47s21.13-27.9,39.65,6.25l.14.22a37.05,37.05,0,0,0,32.56,19.49c22.66,0,23.59-8.14,33.49-25.08,0,0,0-.09,0-.13C1063.05,801.49,1015,678.4,947.1,573.18ZM806,286.3A321.89,321.89,0,0,0,796.28,323,298.88,298.88,0,0,0,791,360.17a178.28,178.28,0,0,0,.88,37.69c-5.34-11.89-7.28-24.87-7.65-37.72a170.38,170.38,0,0,1,3.54-38.43,188.45,188.45,0,0,1,11.9-37.23c5.35-11.92,11.84-24,22.27-33.26C814.43,262.2,810.09,274.24,806,286.3ZM633.35,1176.74a136.87,136.87,0,0,1-42.19,6.73c-14.28-.17-28.84-3.08-41.61-9.68-6.47-3.17-11.51-8.94-16.73-13.74-5.05-5.06-9.23-14.13-12.18-20.42a70.67,70.67,0,0,0,31.26,26.14A101.69,101.69,0,0,0,592,1174c13.79.17,27.54-2.07,41-5.46l10-2.86c3.3-1.1,6.56-2.38,9.82-3.57l5-1.71,4.82-2c3.22-1.41,6.48-2.73,9.73-4C660.34,1161.41,646.92,1172.56,633.35,1176.74ZM903.3,859.9c-1.59-4.35-3.39-8.71-6.43-11.09a7.89,7.89,0,0,0-5.06-1.8,16,16,0,0,0-5.76,1c-4,1.27-7.79,3.61-11.62,5.89s-7.53,4.93-11.57,7.26c2.68-3.78,4.45-8.23,7.67-11.64a36.94,36.94,0,0,1,13.94-9,18.77,18.77,0,0,1,7.7-.93,11,11,0,0,1,7.22,3.57C903,847.17,903.61,855.33,903.3,859.9Zm62.1-163.37c6.59,15.53,10.92,31.88,14,48.39a250.28,250.28,0,0,1,4,50.09c-.43,16.74-2.52,33.69-8.39,49.38,2-16.57,1.87-32.92.93-49.21A398.89,398.89,0,0,0,970,746.57a370,370,0,0,0-11.52-47.46c-5.1-15.42-11.19-30.61-21-44.11C950.32,665.86,958.88,681.17,965.4,696.53Z"/><path class="cls-1" d="M708.24,706c-63.5-82.07-51.09-189-51.09-189-141.44,129.86-33.31,209.12-23.81,236.23s-42,51.09-48.23,51.88-36.39-60.42-36.39-60.42C515.4,677.3,463.65,683.86,436.19,716s-102,86.78-157.76,96.06C266,773.33,227.29,705.2,227.29,705.2S163.7,605.13,125.73,493.58s-9.2-171-9.2-171-67,18.88-87,142.14C10.39,582,99.45,687.21,155.26,780.32c60.72,101.26,69.7,271,77.45,285.78,63.5-22.44,72-156.44,72-156.44,0-10.82,16.52-17.72,27.85-12.41,103.5,37.14,179.77,30.1,237.86-2.16a228.82,228.82,0,0,0,24.29-15.62c13.9-13,31.82-30.19,50.69-49.68,9.47-9.82,19.19-20.16,28.74-30.9C725.27,741.6,708.24,706,708.24,706ZM621.47,599.7A164.55,164.55,0,0,0,613.86,631a131,131,0,0,0-.66,31.9c1.14,10.65,3.67,24.83,7.94,35.17-7-8.67-14.77-25.68-17.11-36.82a99.14,99.14,0,0,1-1-34,115.73,115.73,0,0,1,9.68-32.43c4.76-10.17,14.32-20.57,22.94-27.7C629.44,576.39,625.08,589.49,621.47,599.7ZM51.72,515.19c1.63,10.52,2.67,27.76,4.6,38.5-4.92-9.73-11.39-27.37-14.16-38a118.76,118.76,0,0,1-4.09-32.83,106,106,0,0,1,6-32.61C47.7,439.8,54.44,427,60.46,417.85c-3.16,10.48-4.51,24.47-7,34.76a150.48,150.48,0,0,0-4.09,31.12A176.69,176.69,0,0,0,51.72,515.19Zm198.37,489.26c-.26-13.51-1-26.76-2.51-40a389.51,389.51,0,0,0-6.47-39.12,373.94,373.94,0,0,0-10.52-38.24c-4.18-12.59-9.11-24.91-14.61-37.23,11.45,9.61,18.9,20.88,24.27,33.33A216.67,216.67,0,0,1,252.62,922a218.9,218.9,0,0,1,5,40.35C258,975.86,256.41,990.61,250.09,1004.45ZM466.82,721.14a47,47,0,0,1,20.51-2.56,43.23,43.23,0,0,1,19.58,6.74,28.27,28.27,0,0,1,7.53,7.3c2.11,2.82,5,10.79,5.19,14.09-2.07-6.47-9.8-10.74-15.3-13.73a48.92,48.92,0,0,0-18.18-5.15c-12.67-1.28-29,.7-40.17,8.27C450.25,731,460.31,723.47,466.82,721.14Zm-71,114.54c8.4-9.72,16.85-19.8,25.21-29.92,41.06-49.55,75-1.45,75-1.45l27,37.84C461.67,894.17,407.46,847.17,395.84,835.68Z"/><path class="cls-1" d="M645.44,829.79a274.77,274.77,0,0,1-50.69,49.68C608.65,866.49,626.57,849.28,645.44,829.79Z"/><path class="cls-1" d="M739.79,961.85c-9.9-18.31-44-24.2-69.61-26-.8,18.74-5.07,50.56-16.24,75.82-21.61-26.1-102.27-24.78-99.59-26.45l20.82-78.07c25-.88,48.71.84,70.93,6L661,857.34c33.88-4.23,65.26-.22,93.86,12.67C759.73,871.68,760,926.16,739.79,961.85Z"/><path class="cls-1" d="M187,561.38c8.82,1.61,70.53-18.43,88.17-5.61v45.69s80.15-21.64,94.57,0L356.1,534.13s-13.57-28.58-84.16-1.6c-.8-44.08-14.43-56.11-14.43-56.11l-83.35,8.82S187.78,546.16,187,561.38Z"/><path class="cls-1" d="M827.1,794.36S804.88,828.25,782,814c-59.54-58.44-15.58-168.19-10.65-177.3s20.07-13,19.59-2C760,702,776.36,754.4,787,765.27s35.56-21.16,35.56-21.16C850.34,755.06,827.1,794.36,827.1,794.36Z"/><path class="cls-1" d="M324.33,712.91S319,737.55,302.81,735c-46.78-18.84-45.46-92-44.62-98.31s8.67-12.28,10.78-5.9c-3.08,45.77,17.69,71.64,26.09,75.25s15.76-20.64,15.76-20.64C329.13,684.87,324.33,712.91,324.33,712.91Z"/><path class="cls-1" d="M555.1,566.1c-10.65,17.38-21.87-7.7-21.87-7.7s-9-28.43-21,7.7-22.45,87-39.7,99.76c-11.22-4.49-13.46-82.38-51.66-87.61s-29.22-62.14,6.73-59.54c0,0,47.92,13.86,52.41,73,13.51-55.4,34.24-81.89,45-82.38S575.47,515.76,555.1,566.1Z"/><path class="cls-1" d="M1230.07,704.72C1234.52,561,1166.88,451.64,1110,375.24s-34.68-172.94-34.64-173a615.82,615.82,0,0,1,160.8,415.86A625.67,625.67,0,0,1,1230.07,704.72Z"/><path class="cls-1" d="M181.75,1055.76C69.49,943.85,0,789.08,0,618.07c0-14,.53-27.85,1.45-41.58C7,612.7,32,736.89,126.3,870.71,143.64,900.29,179.59,995.69,181.75,1055.76Z"/><path class="cls-1" d="M440.51,1210.18a614.91,614.91,0,0,1-184.35-91.09c30.37-8.94,81.33-31.34,87.18-82.21C353.11,1073.72,372.38,1157.24,440.51,1210.18Z"/><path class="cls-1" d="M741.82,32.92a95.72,95.72,0,0,0-16-23.55A623.86,623.86,0,0,0,531.91,6a51.52,51.52,0,0,0-4.18,3.66c16.72,161.06,69.79,162.73,106.1,166S716.16,81,716.16,81s5,36.35.09,74.41C703,257.87,680.65,328.79,632.37,391.72c-47.57,62-77.27,54.68-147.2,54.68,40.62,35.56,85,56.46,115.92,51.23,41.76-7.09,71.46-38.62,94.65-75.89,44.51-76.24,56.93-163.54,59.72-186C762.32,180.6,773.19,98,741.82,32.92ZM609.67,91.27,606,96.9c-12.1,2.91-20.94,1.72-26.27-3.43-8.09-7.83-6.25-22.93-5.59-26.89,29.31-15.88,56.6-26.93,59.76-24.38C637.43,48.67,624,69.35,609.67,91.27Zm52.1,348.58a83.39,83.39,0,0,1-21.21,22.7,90.75,90.75,0,0,1-27.86,13.73c-9.9,2.86-26.89,5.55-37,4.45,9.81-2.56,27-10.23,35.88-14.15a118.6,118.6,0,0,0,24.07-14.14c7.75-5.59,14.92-13.65,21.12-21A179.37,179.37,0,0,0,675,405.18C673.64,415.25,667.32,431.09,661.77,439.85Z"/><path class="cls-1" d="M476.9,191.21c-31.25,13.24-51.66,40.88-51.66,40.88s-64.12,47.13-73.28-2.16,6.69-57.56,6.69-57.56L394,203.22l39.69-49.29-75.29-52.1a21.11,21.11,0,0,0-30.46,7c-23.54,42.42-59.1,152.53-4.4,197.28,77.32,63.24,149.8-28.38,149.8-28.38s32.48,16.85-4.8,56.5C446.18,358,422.15,376.61,406.4,387.7c-18.44,13-41,11.92-63.46,9.63-44.36-4.48-151.64-74.72-137.56-173.25,2.86-20,16.68-40.13,38.28-59.28,13.87-13.86,16-39.39.18-36.5a16.31,16.31,0,0,0-7.05,3.31Q225.38,140.54,214.4,150c-27.06,26.4-102.4,100.16-85.68,166,17.87,70.26,123.75,147.05,255.47,178.65a9.1,9.1,0,0,0,7-1.17c76.07-48.43,159.5-124.16,163.83-183.29C559.81,245.64,557.47,212.86,476.9,191.21ZM372.84,308.93a65.31,65.31,0,0,1-24.51-8.1,47.29,47.29,0,0,1-18.17-18.7c-4.05-7.84-4.47-19.45-3.68-27.77,2.16,8.1,5.11,15.66,9.51,22.13a53.57,53.57,0,0,0,17.07,15.45c6.69,4,12,7.85,19.78,9.92a98.89,98.89,0,0,0,26.34,3.41A52.82,52.82,0,0,1,372.84,308.93ZM149.17,319.18a63.38,63.38,0,0,1-5-21.3,61.54,61.54,0,0,1,2.59-21.74c2.16-6.95,8.26-16.79,13.72-21.55-3.75,6.16-4.25,15.87-5.57,22.56a81.84,81.84,0,0,0-1.27,20.42c.79,13.64,1.12,30.43,8.56,42.66C156.78,335.53,152.08,325.87,149.17,319.18Zm384.59,4.18a111.78,111.78,0,0,1-17.61,32c-7.57,9.51-16.94,17.83-27.85,22.89a130.16,130.16,0,0,0,22.26-26.85,151.53,151.53,0,0,0,14.88-30.93,134,134,0,0,0,7.39-33.41,106.16,106.16,0,0,0-2.6-34.63c6.3,10.26,9.2,22.62,9.47,34.81S537.72,311.79,533.76,323.36Z"/><polygon class="cls-1" points="162.19 257.76 162.19 257.76 162.19 257.76 162.19 257.76"/><polygon class="cls-1" points="162.19 257.76 162.19 257.76 162.19 257.76 162.19 257.76"/><path class="cls-1" d="M1057.57,407.46c-94.31-181.84-33.14-254.89-33-255C932.74,187.49,918.43,260,918.43,319.79c0,28.12,7.07,52.61,16.53,78.34,14.1,38.31,34.7,77.12,55.23,108.08,33.53,50.53,112.31,163.61,125.77,317,17.74,201.37-312.09,382.06-322.13,387.47,28.56-10.43,55.14-21.3,80-32.47s48.1-22.75,69.53-34.55a620.74,620.74,0,0,0,213.78-223.06,263.72,263.72,0,0,0,34.23-126.48C1192.93,643.75,1104.9,498.74,1057.57,407.46ZM947.68,347.71a370.84,370.84,0,0,0,6.54,39.67,141.05,141.05,0,0,1-14-38.62,177.13,177.13,0,0,1,2.1-81.64c3.56-13.28,8.77-26.24,16.32-37.83a307.09,307.09,0,0,0-8.94,39.24,308.08,308.08,0,0,0-2,79.18ZM1160.26,829.3c-2.26,9.66-5.3,19.36-10.84,27.6a94.66,94.66,0,0,0,6.72-28.29,203.6,203.6,0,0,0,.64-28.91,402.25,402.25,0,0,0-7.11-57.65,508.07,508.07,0,0,0-14.12-56.46c-2.94-9.26-6.12-18.43-9.9-27.4-3.62-9-7.94-17.74-13.92-25.59,7.45,6.57,12.75,15.25,17.7,23.78a232.35,232.35,0,0,1,12.4,27A335.11,335.11,0,0,1,1158,740.44c3.68,19.46,5.93,39.31,5.44,59.21A162.7,162.7,0,0,1,1160.26,829.3Z"/><path class="cls-1" d="M1024.31,923c-3.84,5.82,5.71,8.63,11.33,5.26s65.17-48.87,51.69-100c-7.87-15.17-31-3.92-31-3.92s-25.41,13.85-13.8,28.83c0,0,19.48-1.87,21.72,7.49S1063,896.36,1024.31,923Z"/></g></g></svg>